<svg id="Layer_1" data-name="Layer 1" xmlns="http://www.w3.org/2000/svg" viewBox="0 0 255.27 73.93">
<title>bigdipper</title>
<defs>
    <style>
      path {
        animation: draw 5s linear infinite;
        stroke: white;
        stroke-dasharray: 900;
      }

      @keyframes draw {
        0% {
          stroke-dashoffset: 900;
          fill-opacity: 0;
        }
        80% {
          stroke-dashoffset: 0;
          stroke-opacity: 1;
          fill-opacity: 0;
        }
        100% {
          stroke-opacity: 0;
          fill-opacity: 1;
        }
      }
    </style>
  </defs>
<path d="M330.46,177.35l1.71-1.58-2.18-.38L325.36,131l1.1.62-.41-2.86,2.12-2-2.85-.5-1.21-2.62h0l-1.34,2.56-2.87.34,1.06,1.09-84.48,21.83-1.16-.2-1.21-2.62-1.34,2.56-2.87.34,1.27,1.31L168.82,147l1.35-1.25-2.85-.5-1.21-2.62-1.34,2.56-2.87.34.84.86-40.16-4.1.59-.54-2.8-.49-.12-.21h0l-1.12-2.43-1.34,2.56-2.87.34,1.65,1.7-34,20.06-.21,0-1.21-2.62-1.34,2.56-2.87.34,2,2.07-.56,2.83,2.59-1.28,2.52,1.42-.41-2.86,2.12-2-1.11-.2,32.72-19.3-.43,2.18,2.59-1.28,2.52,1.42-.41-2.86.55-.51,42.23,4.31.08.09-.56,2.83,2.59-1.28,2.52,1.42-.38-2.63.37,0,.05-.5,0,.5,63.39,3.9-.51,2.55,2.59-1.28,1.71,1,25.59,38.38-.34,0,1.16,1.18.4.61.16.65.23-.06h0l-.5,2.52,1.64-.81.09.14.84-.56,0,0,0,0,2.52,1.42-.41-2.86,1.26-1.17,57.28-14.32-.24,1.21,2.59-1.28,2.52,1.42-.35-2.48.51-.13Zm-2.35-4.7h0l-1.34,2.56-2.87.34,2,2.07-.1.54-57.7,14.42-1.79-.31-1.21-2.62h0l-1.34,2.56-1.42.17-26.08-39.13-.22-1.52,1.67-1.55,84-21.72.14.16-.56,2.83,2.59-1.28.36.2,4.57,43.92Z" transform="translate(-76.9 -123.65)"/></svg>