<?xml version="1.0" encoding="utf-8"?>
<!-- Generator: Adobe Illustrator 23.0.1, SVG Export Plug-In . SVG Version: 6.00 Build 0)  -->
<svg version="1.1" id="Layer_1" xmlns="http://www.w3.org/2000/svg" xmlns:xlink="http://www.w3.org/1999/xlink" x="0px" y="0px"
	 viewBox="0 0 612 792" style="enable-background:new 0 0 612 792;" xml:space="preserve">
<style type="text/css">
	.st0{fill:#020202;}
</style>
<polygon class="st0" points="324.18,293.25 317.48,292.6 314.22,286.7 311.52,292.87 304.91,294.15 309.7,298.41 233.48,343.76 
	229.93,343.41 226.67,337.52 225.31,340.63 202.97,277.69 205.82,279.02 204.38,272.45 208.98,267.53 202.27,266.87 199.02,260.97 
	196.32,267.14 189.71,268.42 191.82,270.3 126.69,267.75 130.5,263.67 123.8,263.01 120.54,257.11 118.7,261.32 91.21,209.38 
	92.96,210.2 91.51,203.62 96.11,198.7 89.41,198.04 86.15,192.15 83.45,198.32 76.84,199.6 81.88,204.07 81.05,210.75 86.86,207.35 
	89.71,208.68 118.19,262.49 117.85,263.28 111.23,264.56 116.27,269.03 115.44,275.72 121.25,272.31 127.35,275.17 125.93,268.72 
	193,271.34 194.74,272.89 193.91,279.58 199.72,276.17 201.69,277.09 224.73,341.97 223.98,343.69 217.36,344.96 222.4,349.44 
	221.57,356.12 227.38,352.71 233.48,355.57 232.04,348.99 236.64,344.07 235.16,343.92 309.84,299.49 309.12,305.31 314.93,301.9 
	321.03,304.75 319.58,298.17 "/>
</svg>
