<svg id="Layer_1" data-name="Layer 1" xmlns="http://www.w3.org/2000/svg" viewBox="0 0 247.34 163.97"><title>casi</title>
<style>
      polygon {
        animation: draw 5s linear infinite;
        stroke: white;
        stroke-dasharray: 900;
      }

      @keyframes draw {
        0% {
          stroke-dashoffset: 900;
          fill-opacity: 0;
        }
        80% {
          stroke-dashoffset: 0;
          stroke-opacity: 1;
          fill-opacity: 0;
        }
        100% {
          stroke-opacity: 1;
          fill-opacity: 1;
        }
      }
    </style>
    <polygon points="247.34 101.11 240.64 100.45 237.38 94.55 234.68 100.72 228.07 102 232.86 106.26 156.64 151.61 153.09 151.26 149.83 145.37 148.47 148.48 126.13 85.54 128.98 86.88 127.54 80.3 132.14 75.38 125.43 74.72 122.17 68.82 119.48 75 112.86 76.27 114.98 78.15 49.85 75.6 53.66 71.52 46.96 70.86 43.7 64.97 41.86 69.17 14.37 17.23 16.12 18.05 14.67 11.47 19.27 6.55 12.57 5.89 9.31 0 6.61 6.17 0 7.45 5.04 11.92 4.21 18.61 10.02 15.2 12.86 16.53 41.35 70.34 41 71.14 34.39 72.41 39.43 76.89 38.6 83.57 44.41 80.16 50.51 83.02 49.09 76.57 116.15 79.19 117.9 80.75 117.07 87.43 122.88 84.02 124.85 84.94 147.89 149.82 147.13 151.54 140.52 152.82 145.56 157.29 144.73 163.97 150.54 160.56 156.64 163.42 155.19 156.84 159.79 151.92 158.32 151.78 233 107.34 232.28 113.16 238.09 109.75 244.19 112.61 242.74 106.03 247.34 101.11" style="fill:#020202"/></svg>