<svg id="Layer_1" data-name="Layer 1" xmlns="http://www.w3.org/2000/svg" viewBox="0 0 148.27 183.93"><title>leo</title>
<style>
      path {
        animation: draw 5s linear infinite;
        stroke: white;
        stroke-dasharray: 900;
      }

      @keyframes draw {
        0% {
          stroke-dashoffset: 900;
          fill-opacity: 0;
        }
        80% {
          stroke-dashoffset: 0;
          stroke-opacity: 1;
          fill-opacity: 0;
        }
        100% {
          stroke-opacity: 0;
          fill-opacity: 1;
        }
      }
    </style>
    <path d="M260.17,136.77l-2.85-.5-1.21-2.62h0L255,135.8l-24.44-17.46v-.08l1.62-1.49-2.85-.5-1.21-2.62-1.34,2.56-2.72.32-21.79-4.92.91-.84-2.85-.5-1.21-2.62-1.34,2.56h-.09l.09-.14L178.18,97.61l2-1.84-2.85-.5-1-2.19,4.41-48.47,1.74,1-.41-2.86.79-.73h24.47l.6.62-.56,2.83,2.59-1.28,2.52,1.42-.41-2.86,2.12-2-2.85-.5-1.21-2.62-1.34,2.56-2.87.34.44.45H183.92l.25-.23-2.85-.5-1.21-2.62-1.34,2.56-2.87.34,2,2.07-.56,2.83,2.4-1.18-4.56,50.14-.42.8-2.87.34,2,2.07-.56,2.83,2.59-1.28,2.52,1.42-.25-1.77,18.16,11.55-1.47.18,1.63,1.68-79.24,34-1.18-2.54-1.34,2.56-2.87.34,2,2.07-.56,2.83,1.87-.92,4.55,63.77-1,1.91-2.87.34,2,2.07-.56,2.83,2.1-1,.32.5.71-.45,2,1.12-.31-2.17,40.51-25.54-.31,1.57,2.59-1.28,2.52,1.42-.41-2.86,2.12-2-1.13-.2,85.65-50.82-.34,1.7,2.59-1.28,2.52,1.42-.41-2.86Zm-93.85,53.5-1.21-2.62-1.34,2.56-2.87.34,2,2L123.5,217.39l.67-.62-2.85-.5-.48-1.05-4.64-64.9,2.26,1.27-.41-2.86,2.12-2-1.2-.21L196.8,113.2l-.45,2.25,2.59-1.28,2.52,1.42-.41-2.86.32-.3,23.75,5.37.79.82-.56,2.83,2.59-1.28,2.52,1.42-.33-2.31,23.83,17-2.06.25,1.91,2-87.28,51.8Z" transform="translate(-111.9 -37.65)"/></svg>