<svg id="Layer_1" data-name="Layer 1" xmlns="http://www.w3.org/2000/svg" viewBox="0 0 201.27 259.93"><title>orion</title>
<style>
      path {
        animation: draw 5s linear infinite;
        stroke: white;
        stroke-dasharray: 900;
      }

      @keyframes draw {
        0% {
          stroke-dashoffset: 900;
          fill-opacity: 0;
        }
        80% {
          stroke-dashoffset: 0;
          stroke-opacity: 1;
          fill-opacity: 0;
        }
        100% {
          stroke-opacity: 0;
          fill-opacity: 1;
        }
      }
    </style>
    <path d="M245.32,149.27l-.32-.7v-6.8l1.46.82-.37-2.57.43,0,0-.68,1.68-1.55-2.85-.5-1.12-2.44-6.36-28.59.62.35-.39-2.72.25.1.29-.76,1.56-1.44-2.85-.5-1.21-2.62-1.34,2.56-.73.08-6.89-2.58,1-.94-2.85-.5-1.21-2.62-1.28,2.44-.15-.06-.08.2-2.7.32,2,2.07-.56,2.83,2.59-1.28,2.52,1.42-.41-2.86.28-.26,5.59,2.1,2,2.05-.56,2.83,2.59-1.28.73.41L243.42,136l-.65,1.25-2.87.34,1.63,1.68L158.85,143l1.32-1.21-2.85-.5-1.21-2.62-.75,1.43-21.3-29.29,1.11-1L133,109.4l-.14-.19-.18.13-.4-.07-1.21-2.62-1.34,2.56-2.87.34,1.68,1.72L89.29,129l.11.25-.08,0-1.21-2.62-1.28,2.44L74.38,110l-.33-2.27,2.12-2-2.85-.5-1.21-2.62-.9,1.72L61.37,79l-.32-2.22,2.12-2-.81-.14,11.5-5.75-.51,2.57,2.59-1.28,2.52,1.42-.41-2.86,2.12-2-2.78-.48-.11-.24,0,0-.67-1.45,3.88-20.17,2,1.14-.41-2.86,2.12-2-2.85-.5-1.21-2.62-1.34,2.56-2.87.34,2,2.07-.56,2.83,2.08-1L75.51,64.8l-.74,1.41-2.87.34L73.34,68,60.7,74.34l-.38-.07-1-2.28L52.79,41.21l.67.38-.41-2.86,2.12-2-2.85-.5-1.21-2.62-1.34,2.56-2.87.34,2,2.07-.56,2.83,2.59-1.28.69.39,6.82,32.36-.68,1.29-2.87.34,2,2.07-.56,2.83,2.59-1.28,1.35.76,10.19,26.31-2.58.31,2,2.07-.56,2.83,2.59-1.28,1.11.63,12.74,19.52-1.89.23,2,2.07-.56,2.83,1.76-.87,22.71,81.74-1.92.23,2,2.07-.56,2.83,1.58-.78-18.35,67-.47-1-1.34,2.56-2.87.34,1.56,1.6.1.85.29,0-.5,2.49,2-1,.62.17.11-.38,2.37,1.34-.41-2.86.33-.31L181.56,280l-.1-.85.45.47-.56,2.83,2.59-1.28,2.52,1.42-.41-2.86,2.12-2-2.85-.5-1.21-2.62-1.26,2.4L152,202.31l-.83.34,2-1.88-2.16-.38,3.7-54.61,1.23-.61,2.52,1.42-.41-2.86.44-.41,0,.68,83.28-3.79-.45,2.24,2.59-1.28.06,0v5.66l-1.23,2.34-2.87.34,2,2.07-.56,2.83,2.59-1.28.42.24-4.26,26.27-1.33,2.53-2.87.34,2,2.07-.24,1.24-10.13,10.8-2.22-.39-1.21-2.62-1.34,2.56-2.87.34,2,2.07-.56,2.83,2.59-1.28,2.52,1.42-.41-2.86.35-.33.47.44,10.84-11.57,1.63-.8.65.11.06-.35,2.41,1.36-.41-2.86,2.12-2-2.85-.5-.46-1,4.43-27.33,1.17.66-.41-2.86,2.12-2Zm-63.44,128-2,.24,1.43,1.47-85.7,10.24.54-.49-2.85-.5-.09-.2L112,219.63l-.48-.13.48-.13,0-.19h0l2.52,1.42-.41-2.86,2.12-2-2.85-.5-.11-.25,15.36-5.76.34.36-.56,2.83,2.59-1.28,2.52,1.42-.41-2.86,2.12-2-1.8-.31,13.37-5,.17.18-.56,2.83,2.59-1.28,2.52,1.42-.41-2.86h0Zm-31.83-77.62-.94-2-1.34,2.56-2.87.34,1.08,1.11-13.85,5.19-1-2.2-1.34,2.56-2.87.34.9.93-15,5.63-.68-1.46L111,214.78l-.25.1L88.06,133.24l2.4,1.35-.41-2.86,2.12-2-1.48-.26,38.09-17.23-.43,2.17,2.59-1.28,2.52,1.42-.41-2.86.27-.25,21.52,29.59-.07.14-2.87.34,2,2,0,.51-.47,2.38.32-.16Z" transform="translate(-46.9 -33.65)"/></svg>