<svg aria-hidden="true" style="position: absolute; width: 0; height: 0; overflow: hidden;" version="1.1" xmlns="http://www.w3.org/2000/svg" xmlns:xlink="http://www.w3.org/1999/xlink">
<defs>
<symbol id="icon-bigdipper" viewBox="0 0 111 32">
<title>bigdipper</title>
<path d="M109.751 23.244l0.74-0.684-0.944-0.164-2.004-19.214 0.476 0.268-0.177-1.238 0.918-0.866-1.234-0.216-0.524-1.134-0.58 1.108-1.242 0.147 0.459 0.472-36.566 9.449-0.502-0.087-0.524-1.134-0.58 1.108-1.242 0.147 0.55 0.567-26.988-1.666 0.584-0.541-1.234-0.216-0.524-1.134-0.58 1.108-1.242 0.147 0.364 0.372-17.383-1.775 0.255-0.234-1.212-0.212-0.052-0.091-0.485-1.052-0.58 1.108-1.242 0.147 0.714 0.736-14.717 8.683h-0.091l-0.524-1.134-0.58 1.108-1.242 0.147 0.866 0.896-0.242 1.225 1.121-0.554 1.091 0.615-0.177-1.238 0.918-0.866-0.48-0.087 14.163-8.354-0.186 0.944 1.121-0.554 1.091 0.615-0.177-1.238 0.238-0.221 18.279 1.866 0.035 0.039-0.242 1.225 1.121-0.554 1.091 0.615-0.164-1.138h0.16l0.022-0.216v0.216l27.438 1.688-0.221 1.104 1.121-0.554 0.74 0.433 11.076 16.612h-0.147l0.502 0.511 0.173 0.264 0.069 0.281 0.1-0.026-0.216 1.091 0.71-0.351 0.039 0.061 0.364-0.242 1.091 0.615-0.177-1.238 0.545-0.506 24.793-6.198-0.104 0.524 1.121-0.554 1.091 0.615-0.151-1.073 0.221-0.056zM108.734 21.209v0l-0.58 1.108-1.242 0.147 0.866 0.896-0.043 0.234-24.975 6.242-0.775-0.134-0.524-1.134-0.58 1.108-0.615 0.074-11.289-16.937-0.095-0.658 0.723-0.671 36.359-9.401 0.061 0.069-0.242 1.225 1.121-0.554 0.156 0.087 1.978 19.010z"></path>
</symbol>
<symbol id="icon-cas" viewBox="0 0 43 32">
<title>cas</title>
<path d="M42.845 24.106l-0.73-0.125-0.307-0.671-0.346 0.656-0.735 0.085 0.51 0.525-13.217 6.007 0.028 0.064-0.020-0.005-0.307-0.671-0.346 0.656-0.166 0.018-6.245-13.601 0.184 0.102-0.105-0.73 0.543-0.505-0.681-0.115 0.005-0.079-0.087-0.005-0.274-0.597-0.3 0.569-13.629-0.694 0.11-0.102-0.73-0.126-0.31-0.671-0.343 0.656h-0.003l-3.737-12.753 0.074 0.041-0.105-0.73 0.543-0.505-0.73-0.125-0.31-0.671-0.343 0.656-0.735 0.087 0.515 0.53-0.143 0.725 0.663-0.328 0.251 0.141 3.801 12.963-0.476 0.056 0.515 0.53-0.143 0.725 0.428-0.21v0.003l0.246-0.072-0.013-0.046 0.003-0.003 0.645 0.361-0.105-0.73 0.169-0.159 13.156 0.669 0.471 0.487-0.143 0.725 0.663-0.328 0.082 0.046 6.355 13.847-0.3 0.033 0.515 0.533-0.143 0.725 0.425-0.21 0.010 0.020 0.231-0.108-0.010-0.026 0.008-0.005 0.645 0.361-0.105-0.73 0.543-0.505-0.379-0.064 12.805-5.822-0.085 0.428 0.663-0.328 0.645 0.361-0.105-0.73 0.543-0.505z"></path>
</symbol>
<symbol id="icon-gemini" viewBox="0 0 36 32">
<title>gemini</title>
<path d="M35.497 21.567l-0.808-0.139-0.34-0.742-0.351 0.666-8.696-9.464 0.561-0.521-0.808-0.139-0.34-0.742-0.266 0.502-9.337-9.595 0.55-0.51-0.808-0.139-0.34-0.742-0.383 0.725-0.813 0.096 0.553 0.567-12.287 7.58-0.048-0.008-0.343-0.742-0.38 0.725-0.813 0.094 0.57 0.589-0.159 0.802 0.734-0.363 0.714 0.4-0.071-0.502 9.719 9.221-0.456 0.054 0.57 0.589-0.159 0.802 0.734-0.363 0.714 0.4-0.057-0.397 10.062 11.096-0.119 0.598 0.459-0.227 0.045 0.051 0.179-0.162 0.051-0.026 0.714 0.4-0.116-0.808 0.601-0.558-0.808-0.139-0.34-0.742-0.383 0.725-0.638 0.074-9.731-10.728 0.564-0.524-0.808-0.139-0.34-0.742-0.38 0.717-10.056-9.544 0.533-0.493-0.337-0.057 11.813-7.291-0.091 0.459 0.734-0.363 0.714 0.4-0.065-0.448 9.164 9.416-0.757 0.091 0.57 0.587-0.159 0.802 0.734-0.363 0.714 0.4-0.057-0.405 8.376 9.116-0.544 0.062 0.57 0.589-0.159 0.802 0.734-0.363 0.714 0.4-0.116-0.808 0.601-0.558z"></path>
</symbol>
<symbol id="icon-leo" viewBox="0 0 26 32">
<title>leo</title>
<path d="M25.796 17.245l-0.496-0.087-0.21-0.456-0.193 0.374-4.252-3.038v-0.014l0.282-0.259-0.496-0.087-0.21-0.456-0.233 0.445-0.473 0.056-3.791-0.856 0.158-0.146-0.496-0.087-0.21-0.456-0.233 0.445h-0.016l0.016-0.024-3.41-2.168 0.348-0.32-0.496-0.087-0.174-0.381 0.767-8.433 0.303 0.174-0.071-0.498 0.137-0.127h4.257l0.104 0.108-0.097 0.492 0.451-0.223 0.438 0.247-0.071-0.498 0.369-0.348-0.496-0.087-0.21-0.456-0.233 0.445-0.499 0.059 0.077 0.078h-3.904l0.043-0.040-0.496-0.087-0.21-0.456-0.233 0.445-0.499 0.059 0.348 0.36-0.097 0.492 0.418-0.205-0.793 8.723-0.073 0.139-0.499 0.059 0.348 0.36-0.097 0.492 0.451-0.223 0.438 0.247-0.043-0.308 3.159 2.009-0.256 0.031 0.284 0.292-13.786 5.915-0.205-0.442-0.233 0.445-0.499 0.059 0.348 0.36-0.097 0.492 0.325-0.16 0.792 11.095-0.174 0.332-0.499 0.059 0.348 0.36-0.097 0.492 0.365-0.174 0.056 0.087 0.124-0.078 0.348 0.195-0.054-0.378 7.048-4.443-0.054 0.273 0.451-0.223 0.438 0.247-0.071-0.498 0.369-0.348-0.197-0.035 14.901-8.842-0.059 0.296 0.451-0.223 0.438 0.247-0.071-0.498zM9.468 26.553l-0.21-0.456-0.233 0.445-0.499 0.059 0.348 0.348-6.855 4.322 0.117-0.108-0.496-0.087-0.083-0.183-0.807-11.291 0.393 0.221-0.071-0.498 0.369-0.348-0.209-0.037 13.541-5.797-0.078 0.391 0.451-0.223 0.438 0.247-0.071-0.498 0.056-0.052 4.132 0.934 0.137 0.143-0.097 0.492 0.451-0.223 0.438 0.247-0.057-0.402 4.146 2.958-0.358 0.044 0.332 0.348-15.185 9.012z"></path>
</symbol>
<symbol id="icon-orion" viewBox="0 0 25 32">
<title>orion</title>
<path d="M24.427 14.234l-0.039-0.086v-0.837l0.18 0.101-0.046-0.316h0.053v-0.084l0.207-0.191-0.351-0.062-0.138-0.3-0.783-3.52 0.076 0.043-0.048-0.335 0.031 0.012 0.036-0.094 0.192-0.177-0.351-0.062-0.149-0.323-0.165 0.315-0.090 0.010-0.848-0.318 0.123-0.116-0.351-0.062-0.149-0.323-0.158 0.3-0.018-0.007-0.010 0.025-0.332 0.039 0.246 0.255-0.069 0.348 0.319-0.158 0.31 0.175-0.050-0.352 0.034-0.032 0.688 0.259 0.246 0.252-0.069 0.348 0.319-0.158 0.090 0.050 0.83 3.743-0.080 0.154-0.353 0.042 0.201 0.207-10.179 0.459 0.162-0.149-0.351-0.062-0.149-0.323-0.092 0.176-2.622-3.606 0.137-0.123-0.267-0.050-0.017-0.023-0.022 0.016-0.049-0.009-0.149-0.323-0.165 0.315-0.353 0.042 0.207 0.212-4.832 2.183 0.014 0.031h-0.010l-0.149-0.323-0.158 0.3-1.533-2.348-0.041-0.279 0.261-0.246-0.351-0.062-0.149-0.323-0.111 0.212-1.211-3.118-0.039-0.273 0.261-0.246-0.1-0.017 1.416-0.708-0.063 0.316 0.319-0.158 0.31 0.175-0.050-0.352 0.261-0.246-0.342-0.059-0.014-0.030-0.082-0.179 0.478-2.483 0.246 0.14-0.050-0.352 0.261-0.246-0.351-0.062-0.149-0.323-0.165 0.315-0.353 0.042 0.246 0.255-0.069 0.348 0.256-0.123-0.485 2.516-0.091 0.174-0.353 0.042 0.177 0.178-1.556 0.781-0.047-0.009-0.123-0.281-0.804-3.789 0.082 0.047-0.050-0.352 0.261-0.246-0.351-0.062-0.149-0.323-0.165 0.315-0.353 0.042 0.246 0.255-0.069 0.348 0.319-0.158 0.085 0.048 0.84 3.984-0.084 0.159-0.353 0.042 0.246 0.255-0.069 0.348 0.319-0.158 0.166 0.094 1.255 3.239-0.318 0.038 0.246 0.255-0.069 0.348 0.319-0.158 0.137 0.078 1.568 2.403-0.233 0.028 0.246 0.255-0.069 0.348 0.217-0.107 2.796 10.063-0.236 0.028 0.246 0.255-0.069 0.348 0.194-0.096-2.259 8.248-0.058-0.123-0.165 0.315-0.353 0.042 0.192 0.197 0.012 0.105h0.036l-0.062 0.307 0.246-0.123 0.076 0.021 0.014-0.047 0.292 0.165-0.050-0.352 0.041-0.038 10.74-1.284-0.012-0.105 0.055 0.058-0.069 0.348 0.319-0.158 0.31 0.175-0.050-0.352 0.261-0.246-0.351-0.062-0.149-0.323-0.155 0.295-3.798-9.196-0.102 0.042 0.246-0.231-0.266-0.047 0.456-6.723 0.151-0.075 0.31 0.175-0.050-0.352 0.054-0.050v0.084l10.253-0.467-0.055 0.276 0.319-0.158h0.007v0.697l-0.151 0.288-0.353 0.042 0.246 0.255-0.069 0.348 0.319-0.158 0.052 0.030-0.524 3.234-0.164 0.311-0.353 0.042 0.246 0.255-0.030 0.153-1.247 1.33-0.273-0.048-0.149-0.323-0.165 0.315-0.353 0.042 0.246 0.255-0.069 0.348 0.319-0.158 0.31 0.175-0.050-0.352 0.043-0.041 0.058 0.054 1.334-1.424 0.201-0.099 0.080 0.014 0.007-0.043 0.297 0.167-0.050-0.352 0.261-0.246-0.351-0.062-0.057-0.123 0.545-3.365 0.144 0.081-0.050-0.352 0.261-0.246zM16.617 29.992l-0.246 0.030 0.176 0.181-10.551 1.261 0.066-0.060-0.351-0.062-0.011-0.025 2.313-8.421-0.059-0.016 0.059-0.016v-0.023l0.31 0.175-0.050-0.352 0.261-0.246-0.351-0.062-0.014-0.031 1.891-0.709 0.042 0.044-0.069 0.348 0.319-0.158 0.31 0.175-0.050-0.352 0.261-0.246-0.222-0.038 1.646-0.616 0.021 0.022-0.069 0.348 0.319-0.158 0.31 0.175-0.050-0.352zM12.699 20.436l-0.116-0.246-0.165 0.315-0.353 0.042 0.133 0.137-1.705 0.639-0.123-0.271-0.165 0.315-0.353 0.042 0.111 0.114-1.847 0.693-0.084-0.18-0.14 0.262-0.031 0.012-2.793-10.051 0.295 0.166-0.050-0.352 0.261-0.246-0.182-0.032 4.689-2.121-0.053 0.267 0.319-0.158 0.31 0.175-0.050-0.352 0.033-0.031 2.649 3.643-0.009 0.017-0.353 0.042 0.246 0.246v0.063l-0.058 0.293 0.039-0.020z"></path>
</symbol>
<symbol id="icon-virgo" viewBox="0 0 39 32">
<title>virgo</title>
<path d="M39.394 0.602l-0.55-0.096-0.233-0.505-0.258 0.494-0.553 0.066 0.386 0.399-0.050 0.255-4.139 4.628-0.208-0.449-0.258 0.494-0.553 0.066 0.361 0.368-5.436 3.059h-0.050l-0.233-0.505-0.258 0.494-0.419 0.048-6.297-2.424 0.237-0.218-0.55-0.096-0.233-0.505-0.179 0.343-2.656-4.277-0.069-0.486 0.409-0.386-0.55-0.096-0.233-0.505-0.258 0.494-0.553 0.066 0.386 0.399-0.108 0.546 0.401-0.193 0.081 0.081 0.091-0.089 0.114 0.062 2.816 4.538-0.503 0.060 0.386 0.399-0.108 0.546 0.309-0.152-4.422 13.662-0.164-0.353-0.258 0.494-0.553 0.066 0.386 0.399v0.021l-5.89 1.682-0.193-0.035-0.233-0.505-0.258 0.494-0.553 0.066 0.386 0.399-0.033 0.168-7.039 6.864-0.218-0.469-0.258 0.494-0.553 0.066 0.386 0.399-0.108 0.546 0.499-0.247 0.486 0.274-0.079-0.552 0.409-0.386-0.361-0.064 6.769-6.597v0.042l0.499-0.247 0.486 0.274-0.079-0.552 0.347-0.322 5.558-1.587-0.062 0.312 0.499-0.247 0.486 0.274-0.079-0.552 0.031-0.029 7.664 2.507 0.386 0.399-0.039 0.193-5.138 5.282-0.214-0.461-0.258 0.494-0.553 0.066 0.386 0.399-0.108 0.546 0.5-0.247 0.486 0.274-0.079-0.552 0.409-0.386-0.374-0.066 4.852-5.014 0.492-0.243 0.486 0.274-0.079-0.552 0.409-0.386-0.55-0.096-0.062-0.135v-5.94l0.282 0.158-0.079-0.552 0.409-0.386-0.501-0.087 3.14-7.155 0.017-0.010 0.486 0.274-0.079-0.552 0.409-0.386-0.193-0.035 5.124-2.893-0.069 0.349 0.499-0.247 0.486 0.274-0.079-0.552 0.409-0.386-0.386-0.067 3.998-4.48 0.399-0.193 0.486 0.274-0.079-0.552zM24.299 17.106l-0.152-0.328-0.258 0.494-0.553 0.066 0.386 0.399-0.108 0.546 0.5-0.247h0.012v5.72l-0.237 0.451h-0.089l-7.955-2.578 0.216-0.193-0.471-0.083 4.511-13.897 0.451 0.253-0.079-0.552 0.014-0.013 6.538 2.507 0.172 0.177-0.108 0.546 0.214-0.106z"></path>
</symbol>
</defs>
</svg>
