<svg id="Layer_1" data-name="Layer 1" xmlns="http://www.w3.org/2000/svg" viewBox="0 0 204.27 165.93"><title>virgo</title>
<style>
      path {
        animation: draw 5s linear infinite;
        stroke: white;
        stroke-dasharray: 900;
      }

      @keyframes draw {
        0% {
          stroke-dashoffset: 900;
          fill-opacity: 0;
        }
        80% {
          stroke-dashoffset: 0;
          stroke-opacity: 1;
          fill-opacity: 0;
        }
        100% {
          stroke-opacity: 0;
          fill-opacity: 1;
        }
      }
    </style>
    <path d="M213.17,81.77l-2.85-.5-1.21-2.62-1.34,2.56-2.87.34,2,2.07-.26,1.32-21.46,24-1.08-2.33-1.34,2.56-2.87.34,1.87,1.91-28.19,15.86-.26,0-1.21-2.62-1.34,2.56-2.17.25L115.94,114.9l1.23-1.13-2.85-.5-1.21-2.62-.93,1.78L98.41,90.25l-.36-2.52,2.12-2-2.85-.5-1.21-2.62-1.34,2.56-2.87.34,2,2.07-.56,2.83,2.08-1,.42.42.47-.46.59.32,14.6,23.53-2.61.31,2,2.07-.56,2.83,1.6-.79L89,188.48l-.85-1.83-1.34,2.56-2.87.34,2,2.07,0,.11-30.54,8.72-1-.18-1.21-2.62-1.34,2.56-2.87.34,2,2.07-.17.87-36.5,35.59-1.13-2.43-1.34,2.56-2.87.34,2,2.07-.56,2.83,2.59-1.28,2.52,1.42-.41-2.86,2.12-2-1.87-.33,35.1-34.21,0,.22,2.59-1.28,2.52,1.42-.41-2.86,1.8-1.67,28.82-8.23-.32,1.62,2.59-1.28,2.52,1.42-.41-2.86.16-.15,39.74,13h0l2,2.07-.2,1L105.22,235l-1.11-2.39-1.34,2.56-2.87.34,2,2.07-.56,2.83,2.59-1.28,2.52,1.42-.41-2.86,2.12-2-1.94-.34,25.16-26,2.55-1.26,2.52,1.42-.41-2.86,2.12-2-2.85-.5-.32-.7v-30.8l1.46.82-.41-2.86,2.12-2-2.6-.45,16.28-37.1.09-.05,2.52,1.42-.41-2.86,2.12-2-1-.18,26.57-15-.36,1.81,2.59-1.28,2.52,1.42-.41-2.86,2.12-2-2-.35,20.73-23.23,2.07-1,2.52,1.42-.41-2.86ZM134.9,167.35l-.79-1.7-1.34,2.56-2.87.34,2,2.07-.56,2.83,2.59-1.28.06,0v29.66l-1.23,2.34-.46,0L91.05,190.8l1.12-1-2.44-.43,23.39-72.06,2.34,1.31-.41-2.86.07-.07,33.9,13,.89.92-.56,2.83,1.11-.55Z" transform="translate(-8.9 -78.65)"/></svg>